<?xml version="1.0" encoding="UTF-8"?><svg id="Layer_1" xmlns="http://www.w3.org/2000/svg" viewBox="0 0 330.35 478.93"><path d="m210.7,219.84l-2.98,4.95c9.59,3.76,95.94,30.28,97.22,115.95.38,25.22-33.65,109.95-139.3,110.15-81.09.15-115.95-38.25-138.04-86.06l-5.76,3.9c27.69,55.72,68.1,89.78,144.52,89.78,115.24,0,143.57-93.69,143.57-116.03,0-95.49-90.12-118.46-99.23-122.65Z" fill="none" stroke="#000" stroke-miterlimit="10" stroke-width="11.93"/><path d="m108.05,336.6l3.56-.32c3.66-23.43,23.56-40.83,55.38-39.95,16.09.45,29.4,5.22,36.35,13.9l1.1-1.3c-6.04-8.45-19.23-14.33-39.86-14.81-14.95-.35-48.37,4.46-56.53,42.48Z" fill="none" stroke="#000" stroke-miterlimit="10" stroke-width="11.93"/><path d="m75.81,214.11c11.88,9.1,21.56,11.84,39.67,12.28v-3.25c-15.25-.56-26.82-2.12-38.12-11.29-12.5-10.15-18.79-20.05-19.29-31.16h-2.45c-.1,10.39,3.8,20.86,20.19,33.41Z" fill="none" stroke="#000" stroke-miterlimit="10" stroke-width="11.93"/><path d="m278.6,123.14c.01-83.2-63.9-89.89-63.9-89.89l-1.06,3.6s62.32,9.12,61.19,88.88c-1.16,82.02-70.03,90.31-70.03,90.31v4.8s73.78-10.72,73.8-97.69Z" fill="none" stroke="#000" stroke-miterlimit="10" stroke-width="11.93"/><path d="m109.6,141.94c-3.88-25.82,23.56-40.83,55.38-39.95,16.09.45,23.53,5.03,30.49,13.7l2.4-1.13c-6.04-8.45-14.67-14.31-35.3-14.79-14.96-.35-62.26,5.61-56.53,42.48l3.56-.32Z" fill="none" stroke="#000" stroke-miterlimit="10" stroke-width="11.93"/></svg>