<?xml version="1.0" encoding="UTF-8"?><svg id="Layer_1" xmlns="http://www.w3.org/2000/svg" viewBox="0 0 318.49 442.38"><polygon points="297.6 427.98 16.38 427.98 16.38 433.15 304.75 433.15 304.75 382.49 297.6 382.49 297.6 427.98" fill="none" stroke="#000" stroke-miterlimit="10" stroke-width="8"/><path d="m202.86,111.66l1.56-5.66c-58.02-11.34-97.69-3.15-141.55,45.93l-33.88-36.14-4.14,4.52,38.68,39.86c30.64-42.78,78.2-63.47,139.33-48.5Z" fill="none" stroke="#000" stroke-miterlimit="10" stroke-width="8"/><path d="m122.73,359.26l4.14,5.84c135.53-122.54,177.88-178.26,177.88-233.41s-35.69-87.19-46.12-97.51l-4.52,5.65c22.78,23.72,44.88,52.67,44.8,92.24-.19,92.61-176.19,227.2-176.19,227.2Z" fill="none" stroke="#000" stroke-miterlimit="10" stroke-width="8"/></svg>