<?xml version="1.0" encoding="UTF-8"?><svg id="Layer_1" xmlns="http://www.w3.org/2000/svg" viewBox="0 0 336.57 449.87"><path d="m267.3,213.27l-3.39,4.89s57.22,18.45,56.64,104.12c-.16,23.85-34.17,108.98-144.86,109.18-84.96.15-121.47-38.25-144.63-86.06l-6.04,3.9c29.01,55.72,71.35,90.01,151.41,89.78,110.23-.32,149.65-93.7,150.41-116.03,2.94-86.45-59.56-109.79-59.56-109.79Z" fill="none" stroke="#000" stroke-miterlimit="10" stroke-width="8"/><path d="m103.53,311.1l4.89-.38c.75-21.84,25.26-38.42,69.74-38.28,22.49.07,41.91,4.22,53.2,12.12l1.29-1.23c-9.98-7.72-29.44-12.89-58.26-12.89-20.89,0-66.54,5.18-70.87,40.66Z" fill="none" stroke="#000" stroke-miterlimit="10" stroke-width="8"/><path d="m80.33,221.11S47.16,72.56,180.2,53.65c40.31-5.73,85.22,19.76,85.22,19.76l18.07-44.61-6.78-2.26-15.81,38.96s-44.92-21.01-84.9-16.09c-132.42,16.28-99.96,172-99.96,172l4.29-.3Z" fill="none" stroke="#000" stroke-miterlimit="10" stroke-width="8"/></svg>