<?xml version="1.0" encoding="UTF-8"?><svg id="Layer_1" xmlns="http://www.w3.org/2000/svg" viewBox="0 0 342.21 420.94"><path d="m244.63,286.54c6.18-14.63,1.71-29.19-9.85-37.73-24.93-18.42-100.68-33.68-151-3.53l2.67,4.48c37.49-28.36,124.87-14.38,144.51,1.49,9.97,8.05,16.32,19.17,8.87,33.72l4.8,1.56Z" fill="none" stroke="#000" stroke-miterlimit="10" stroke-width="8"/><path d="m330.16,275.12c-1.88-48.43-60.24-83.63-60.24-83.63l-4.87,5.67s54.7,28.53,57.52,78.37c1.35,23.81-32.91,108.84-143.59,107.99-61.83-.47-96.73-9.89-150.8-52.48l26.41-32.56-6.25-4.93-30.87,38.78c55.91,40.33,86.55,57.47,162.26,58.82,110.21,1.98,151.28-93.7,150.41-116.03Z" fill="none" stroke="#000" stroke-miterlimit="10" stroke-width="8"/><polygon points="80.47 65.18 315.11 65.18 315.11 21.13 307.48 21.13 307.48 58.4 73.69 58.4 73.69 193.56 80.47 193.56 80.47 65.18" fill="none" stroke="#000" stroke-miterlimit="10" stroke-width="8"/></svg>