<?xml version="1.0" encoding="UTF-8"?><svg id="Layer_1" xmlns="http://www.w3.org/2000/svg" viewBox="0 0 423.53 459.76"><polygon points="73.69 434.6 17.49 434.6 17.49 445.17 80.47 445.17 80.47 14.46 73.69 14.46 73.69 434.6" fill="none" stroke="#000" stroke-miterlimit="10" stroke-width="11.96"/><path d="m338.03,62.46l-5.77,5.04s67.36,30.62,63.51,168.43c-1.73,62.06-22.45,168.44-128.08,172.61-49.62,1.96-79.78-30.32-83.89-41.95l-6.48,5.33s18.29,43.49,89.92,43.49c100.94,0,136.6-92.6,138.15-180.34,2.57-145.66-67.36-172.6-67.36-172.6Z" fill="none" stroke="#000" stroke-miterlimit="10" stroke-width="11.96"/><path d="m240.56,288.9c-6.51-10.68-18.07-30.21-17.79-74.54.28-44.14,25.42-70.12,53.36-71.58,18.92-.99,27.11,8.33,33.45,14.86l5.52-4.36c-7.62-8.95-21.24-19.02-40.38-19.11-26.54-.12-62.96,29.82-62.96,80.19,0,48.28,13.27,69.18,20.14,82.16l8.66-7.62Z" fill="none" stroke="#000" stroke-miterlimit="10" stroke-width="11.96"/></svg>