<?xml version="1.0" encoding="UTF-8"?><svg id="Layer_1" xmlns="http://www.w3.org/2000/svg" viewBox="0 0 345.6 442.38"><path d="m179.2,91.93c74.92,7.11,57.13,38.45,55.44,44.66l5.93,1.98c3.39-7.06,16.66-44.33-61.37-51.94-45.42-4.43-79.83,7.64-117.3,49.58l-33.88-36.14-4.14,4.52,38.68,39.86c26.73-37.33,66.3-57.29,116.64-52.52Z" fill="none" stroke="#000" stroke-miterlimit="10" stroke-width="8"/><path d="m217.69,341.86c5.93-8.66,8.38-17.88,7.25-28.8-2.48-23.97-51.61-50.04-110.04-44.79l-.06-49.54-6.11.47,1.03,55.53c46.09-9.22,110.67,17.05,109.91,39.83-.37,11.11-2.61,17.98-7.62,22.78l5.65,4.52Z" fill="none" stroke="#000" stroke-miterlimit="10" stroke-width="8"/><path d="m324.24,125.5c-23.63,86.67-123.4,106.08-123.4,106.08l1.88,7.91c78.52-28.98,116.04-67.95,127.35-114.36,11.19-45.92-37.75-85.76-50.55-93.66l-3.39,7.53c19.58,10.92,58.51,48.34,48.1,86.51Z" fill="none" stroke="#000" stroke-miterlimit="10" stroke-width="8"/><path d="m290.36,274.29l-4.44,6.01s37.65,21.33,36.89,56.86c-.28,13.41-29.74,84.05-140.42,83.2-61.83-.47-96.73-9.89-150.8-52.48l26.41-32.56-6.25-4.93-30.87,38.78c55.91,40.33,86.55,57.47,162.26,58.82,110.21,1.98,147.18-73.64,147.2-90.21.04-42.07-39.99-63.48-39.99-63.48Z" fill="none" stroke="#000" stroke-miterlimit="10" stroke-width="8"/></svg>