<?xml version="1.0" encoding="UTF-8"?><svg id="Layer_1" xmlns="http://www.w3.org/2000/svg" viewBox="0 0 362.54 468.74"><path d="m257.51,29.48l-1.13,9.04s78.87,3.95,81.41,120c2.54,116.05-183.15,280-183.15,280l-44.88-39.72-6.42,7.06,51.67,45.3s191.43-176.6,191.43-292.64S257.51,29.48,257.51,29.48Z" fill="none" stroke="#000" stroke-miterlimit="10" stroke-width="11.93"/><path d="m216.85,238.8l-3.76-5.65s-47.44,44.05-105.04,26.35S28.99,184.96,28.99,184.96l-5.65,4.89s20.71,61.74,83.58,75.67c62.87,13.93,109.93-26.73,109.93-26.73Z" fill="none" stroke="#000" stroke-miterlimit="10" stroke-width="11.93"/><path d="m175.05,115.35c16.09.45,29.4,5.22,36.35,13.9l1.1-1.3c-6.04-8.45-19.23-14.33-39.86-14.81-14.95-.35-48.37,4.46-56.53,42.48l3.56-.32c3.66-23.43,23.56-40.83,55.38-39.95Z" fill="none" stroke="#000" stroke-miterlimit="10" stroke-width="11.93"/></svg>