<?xml version="1.0" encoding="UTF-8"?>
<svg id="icon_nine" xmlns="http://www.w3.org/2000/svg" viewBox="0 0 335.99 436.48">
  <defs>
    <style>
      .cls-1 {
        fill: none;
        stroke: #000;
        stroke-miterlimit: 10;
        stroke-width: 11.93px;
      }
    </style>
  </defs>
  <path id="nine" class="cls-1" d="m330.03,135.82c0,116.05-191.43,292.64-191.43,292.64l-51.67-45.3,6.42-7.06,44.88,39.72s185.69-163.95,183.15-280c-2.54-116.05-81.41-120-81.41-120l1.13-9.04s88.94,12.99,88.94,129.04Zm-129.6,80.28l-3.76-5.65s-47.44,44.05-105.04,26.35C34.03,219.11,12.57,162.26,12.57,162.26l-5.65,4.89s20.71,61.74,83.58,75.67c62.87,13.93,109.93-26.73,109.93-26.73Zm-41.8-123.45c16.09.45,29.4,5.22,36.35,13.9l1.1-1.3c-6.04-8.45-19.23-14.33-39.86-14.81-14.95-.35-48.37,4.46-56.53,42.48l3.56-.32c3.66-23.43,23.56-40.83,55.38-39.95Z"/>
</svg>