<?xml version="1.0" encoding="UTF-8"?>
<svg id="icon_eight" xmlns="http://www.w3.org/2000/svg" viewBox="0 0 301.71 437.68">
  <defs>
    <style>
      .cls-1 {
        fill: none;
        stroke: #000;
        stroke-miterlimit: 10;
        stroke-width: 11.93px;
      }
    </style>
    <script>
      // select elements you want to interact with first
      let eightIcon = document.querySelector('#icon_eight');

      // functions always go in the middle
      function logMyId() {
          console.log('clicked on this element:', this.id);
      }

      // event handling at the bottom
      eightIcon.addEventListener('click', logMyId);
    </script>
  </defs>
  <path id="eight" class="cls-1" d="m295.75,315.68c0,22.35-28.33,116.03-143.57,116.03-76.42,0-116.84-34.06-144.52-89.78l5.76-3.9c22.1,47.81,56.95,86.21,138.04,86.06,105.65-.2,139.68-84.93,139.3-110.15-1.28-85.67-87.63-112.19-97.22-115.95l2.98-4.95c9.11,4.19,99.23,27.16,99.23,122.65Zm-201.88-5.89l3.56-.32c3.66-23.43,23.56-40.83,55.38-39.95,16.09.45,29.4,5.22,36.35,13.9l1.1-1.3c-6.04-8.45-19.23-14.33-39.86-14.81-14.95-.35-48.37,4.46-56.53,42.48Zm-32.24-122.49c11.88,9.1,21.56,11.84,39.67,12.28v-3.25c-15.25-.56-26.82-2.12-38.12-11.29-12.5-10.15-18.79-20.05-19.29-31.16h-2.45c-.1,10.39,3.8,20.86,20.19,33.41Zm202.79-90.96c.01-83.2-63.9-89.89-63.9-89.89l-1.06,3.6s62.32,9.12,61.19,88.88c-1.16,82.02-70.03,90.31-70.03,90.31v4.8s73.78-10.72,73.8-97.69Zm-169,18.79c-3.88-25.82,23.56-40.83,55.38-39.95,16.09.45,23.53,5.03,30.49,13.7l2.4-1.13c-6.04-8.45-14.67-14.31-35.3-14.79-14.96-.35-62.26,5.61-56.53,42.48l3.56-.32Z"/>
</svg>