<?xml version="1.0" encoding="UTF-8"?>
<svg id="icon_three" xmlns="http://www.w3.org/2000/svg" viewBox="0 0 320.58 406.35">
  <defs>
    <style>
      .cls-1 {
        fill: none;
        stroke: #000;
        stroke-miterlimit: 10;
        stroke-width: 8px;
      }
    </style>
  </defs>
  <path id="three" class="cls-1" d="m47.4,118.78L8.72,78.92l4.14-4.52,33.88,36.14c37.47-41.93,71.88-54,117.3-49.58,78.03,7.61,64.76,44.88,61.37,51.94l-5.93-1.98c1.69-6.21,19.48-37.55-55.44-44.66-50.34-4.78-89.91,15.19-116.64,52.52Zm155.14,197.42c5.93-8.66,8.38-17.88,7.25-28.8-2.48-23.97-51.61-50.04-110.04-44.79l-.06-49.54-6.11.47,1.03,55.53c46.09-9.22,110.67,17.05,109.91,39.83-.37,11.11-2.61,17.98-7.62,22.78l5.65,4.52Zm106.55-216.36c-23.63,86.67-123.4,106.08-123.4,106.08l1.88,7.91c78.52-28.98,116.04-67.95,127.35-114.36,11.19-45.92-37.75-85.76-50.55-93.66l-3.39,7.53c19.58,10.92,58.51,48.34,48.1,86.51Zm-33.88,148.78l-4.44,6.01s37.65,21.33,36.89,56.86c-.28,13.41-29.74,84.05-140.42,83.2-61.83-.47-96.73-9.89-150.8-52.48l26.41-32.56-6.25-4.93-30.87,38.78c55.91,40.33,86.55,57.47,162.26,58.82,110.21,1.98,147.18-73.64,147.2-90.21.04-42.07-39.99-63.48-39.99-63.48Z"/>
</svg>