<?xml version="1.0" encoding="UTF-8"?>
<svg id="icon_five" xmlns="http://www.w3.org/2000/svg" viewBox="0 0 322.43 378.05">
  <defs>
    <style>
      .cls-1 {
        fill: none;
        stroke: #000;
        stroke-miterlimit: 10;
        stroke-width: 8px;
      }
    </style>
  </defs>
  <path id="five" class="cls-1" d="m228.07,267.85c7.45-14.55,1.09-25.67-8.87-33.72-19.63-15.87-107.02-29.85-144.51-1.49l-2.67-4.48c50.32-30.15,126.07-14.89,151,3.53,11.56,8.54,16.03,23.1,9.85,37.73l-4.8-1.56Zm90.34-9.87c-1.88-48.43-60.24-83.63-60.24-83.63l-4.87,5.67s54.7,28.53,57.52,78.37c1.35,23.81-32.91,108.84-143.59,107.99-61.83-.47-96.73-9.89-150.8-52.48l26.41-32.56-6.25-4.93-30.87,38.78c55.91,40.33,86.55,57.47,162.26,58.82,110.21,1.98,151.28-93.7,150.41-116.03ZM68.72,48.05h234.64V4h-7.62v37.27H61.94v135.15h6.78V48.05Z"/>
</svg>